<?xml version="1.0" encoding="UTF-8"?>
<svg id="Layer_1" data-name="Layer 1" xmlns="http://www.w3.org/2000/svg" xmlns:xlink="http://www.w3.org/1999/xlink" viewBox="0 0 604 440">
  <defs>
    <style>
      .cls-1 {
        fill: url(#linear-gradient-2);
      }

      .cls-2 {
        fill: url(#linear-gradient);
      }
    </style>
    <linearGradient id="linear-gradient" x1="240.93" y1="182.14" x2="552" y2="182.14" gradientUnits="userSpaceOnUse">
      <stop offset="0" stop-color="#fad64a"/>
      <stop offset="1" stop-color="#9a6800"/>
    </linearGradient>
    <linearGradient id="linear-gradient-2" x1="52" y1="257.86" x2="363.07" y2="257.86" xlink:href="#linear-gradient"/>
  </defs>
  <path class="cls-2" d="M364.2,126.27l60.27,60.27h32.98c18.39,0,33.89,14.48,34.3,32.86.21,9.59-3.59,18.3-9.84,24.56h0c-6.09,6.09-14.5,9.85-23.78,9.85-.49,0-.97-.01-1.46-.03-8.37-.36-16.25-4.1-22.17-10.02L240.93,50.21v85.22l155.95,155.95c16.44,14.14,37.83,22.69,61.22,22.69,13.72,0,26.73-2.94,38.47-8.22,10.46-4.71,19.92-11.27,27.92-19.28,15.15-15.16,25.15-35.48,27.13-58.1.28-3.13.4-6.3.36-9.52-.65-51.55-43.34-92.69-94.89-92.69h-92.91Z"/>
  <path class="cls-1" d="M239.8,313.73l-60.27-60.27h-32.98c-18.39,0-33.89-14.48-34.3-32.86-.21-9.59,3.59-18.3,9.84-24.56h0c6.09-6.09,14.5-9.85,23.78-9.85.49,0,.97.01,1.46.03,8.37.36,16.25,4.1,22.17,10.02l193.54,193.54v-85.22l-155.95-155.95c-16.44-14.14-37.83-22.69-61.22-22.69-13.72,0-26.73,2.94-38.47,8.22-10.46,4.71-19.92,11.27-27.92,19.28-15.15,15.16-25.15,35.48-27.13,58.1-.28,3.13-.4,6.3-.36,9.52.65,51.55,43.34,92.69,94.89,92.69h92.91Z"/>
</svg>