<?xml version="1.0" encoding="UTF-8"?>
<svg version="1.1" xmlns="http://www.w3.org/2000/svg" width="4500" height="4500">
<path d="M0 0 C1485 0 2970 0 4500 0 C4500 1485 4500 2970 4500 4500 C3015 4500 1530 4500 0 4500 C0 3015 0 1530 0 0 Z " fill="#891C13" transform="translate(0,0)"/>
<path d="M0 0 C1.44847616 -0.00011234 2.89695231 -0.00023449 4.34542847 -0.00036621 C26.2509237 0.01445074 47.71618291 0.93466442 69.375 4.375 C71.61054111 4.70275171 73.84621305 5.02961261 76.08203125 5.35546875 C88.46788021 7.23254896 100.69124172 9.8042949 112.86083984 12.76464844 C114.43757732 13.14742603 116.01583644 13.52404484 117.59619141 13.89160156 C153.02972295 22.137295 186.90982156 36.21465441 219.375 52.375 C220.20805664 52.78685547 221.04111328 53.19871094 221.89941406 53.62304688 C242.75207706 64.00188784 262.69697813 76.46810504 281.375 90.375 C281.93896484 90.79410645 282.50292969 91.21321289 283.08398438 91.64501953 C286.30850976 94.05578156 289.48177846 96.52497899 292.64220023 99.01944669 C294.27369637 100.29575111 295.92162756 101.54714274 297.57382393 102.79645282 C311.08698928 113.20913665 322.88619843 125.46363793 334.9019869 137.5227856 C338.21553096 140.8449155 341.53785498 144.15824704 344.85902023 147.47275478 C350.66653969 153.27101649 356.46851445 159.07477949 362.26680374 164.88227081 C370.88859445 173.51770681 379.51900408 182.14449078 388.15110777 190.76961624 C403.56693478 206.17353783 418.97427512 221.58592558 434.37808071 237.00186745 C447.84993852 250.48426718 461.32479739 263.96365887 474.8026123 277.44010353 C475.69709249 278.33449969 476.59157268 279.22889584 477.51315832 280.15039491 C481.14412707 283.78101141 484.77511171 287.41161203 488.40611899 291.04219 C513.73218093 316.36530374 539.05560046 341.69105703 564.3729248 367.0229063 C564.84961424 367.49986893 565.32630368 367.97683155 565.81743824 368.46824759 C573.55807281 376.21333557 581.29857661 383.95855425 589.03907254 391.70378077 C619.77091364 422.45438699 650.50893461 453.19880103 681.25292969 483.93725586 C683.19777414 485.88175333 685.14261791 487.82625148 687.08746171 489.77074959 C687.56831793 490.25152021 688.04917416 490.73229083 688.54460178 491.22763026 C693.86981032 496.55189269 699.19500166 501.87617231 704.52017212 507.20047283 C705.23647453 507.91665686 705.23647453 507.91665686 705.96724769 508.64730925 C731.72537875 534.40122144 757.47875037 560.15989161 783.23043633 585.92024833 C785.94748904 588.6382081 788.66454246 591.35616717 791.38159744 594.07412468 C793.18405498 595.87718332 794.98650875 597.68024571 796.78895874 599.48331189 C809.37254473 612.07112506 821.95795815 624.65710856 834.54460923 637.24185688 C850.75146136 653.44627122 866.95507566 669.6539114 883.15289629 685.86735394 C891.72592593 694.44846027 900.30170612 703.02679607 908.88141204 711.60122733 C914.60088933 717.31774303 920.31675862 723.03784897 926.02961623 728.7609801 C929.29157239 732.02860017 932.5551345 735.29457333 935.82304358 738.55624088 C938.78924534 741.51684509 941.75089534 744.48192108 944.70880909 747.45080516 C945.77922695 748.52355141 946.85136328 749.594586 947.92531793 750.66379145 C949.37186301 752.10441582 950.811767 753.55169973 952.25123978 754.99939078 C953.05376781 755.80227807 953.85629584 756.60516536 954.6831429 757.43238256 C956.375 759.375 956.375 759.375 956.375 761.375 C956.91512407 761.61999343 957.45524814 761.86498687 958.01173961 762.11740434 C1011.91764822 790.80312893 1088.62343022 858.74860436 1106.88298035 917.88652039 C1115.67972309 948.84545483 1116.38382868 981.55794497 1116.2421875 1013.5234375 C1116.23839399 1014.69902902 1116.23460049 1015.87462054 1116.23069203 1017.08583605 C1116.10018646 1047.30854169 1114.59580978 1077.41235205 1112.60278249 1107.56247354 C1111.46009537 1125.04633027 1110.69644402 1142.51915371 1110.17529297 1160.03222656 C1110.13798623 1161.28231492 1110.1006795 1162.53240328 1110.06224225 1163.8203731 C1109.87679417 1170.09793951 1109.69737983 1176.37566117 1109.52095199 1182.65348697 C1108.07162357 1233.9517819 1105.59338186 1285.15915187 1102.375 1336.375 C1099.46360836 1334.97447494 1097.36885573 1333.62090901 1095.07519531 1331.33398438 C1094.45485413 1330.71994751 1093.83451294 1330.10591064 1093.19537354 1329.4732666 C1092.53793152 1328.81177612 1091.8804895 1328.15028564 1091.203125 1327.46875 C1090.5207074 1326.78824585 1089.83828979 1326.1077417 1089.13519287 1325.40661621 C1087.69720573 1323.96998803 1086.26173308 1322.53083915 1084.82861328 1321.08935547 C1082.62622972 1318.87623571 1080.41335067 1316.67401528 1078.19921875 1314.47265625 C1076.80404546 1313.07616197 1075.40949238 1311.67904773 1074.015625 1310.28125 C1073.35008606 1309.61975952 1072.68454712 1308.95826904 1071.99884033 1308.2767334 C1071.39110779 1307.66269653 1070.78337524 1307.04865967 1070.15722656 1306.41601562 C1069.34925629 1305.60565857 1069.34925629 1305.60565857 1068.52496338 1304.77893066 C1067.375 1303.375 1067.375 1303.375 1067.375 1301.375 C1066.4778125 1300.9728125 1066.4778125 1300.9728125 1065.5625 1300.5625 C1063.37652146 1299.37582594 1061.96167406 1298.27900887 1060.375 1296.375 C1060.375 1295.715 1060.375 1295.055 1060.375 1294.375 C1059.818125 1294.148125 1059.26125 1293.92125 1058.6875 1293.6875 C1055.71340412 1291.99949964 1053.65491135 1289.90823483 1051.375 1287.375 C1051.375 1286.715 1051.375 1286.055 1051.375 1285.375 C1050.055 1284.715 1048.735 1284.055 1047.375 1283.375 C1047.375 1282.715 1047.375 1282.055 1047.375 1281.375 C1046.715 1281.375 1046.055 1281.375 1045.375 1281.375 C1040.60755814 1277.07267442 1040.60755814 1277.07267442 1039.375 1273.375 C1038.4159375 1272.9109375 1038.4159375 1272.9109375 1037.4375 1272.4375 C1034.87448282 1271.11715782 1034.6342663 1269.8935326 1033.375 1267.375 C1031.3414052 1266.10695434 1031.3414052 1266.10695434 1029.375 1265.375 C1029.375 1264.715 1029.375 1264.055 1029.375 1263.375 C1028.715 1263.375 1028.055 1263.375 1027.375 1263.375 C1027.375 1262.715 1027.375 1262.055 1027.375 1261.375 C1026.47856781 1260.96556152 1026.47856781 1260.96556152 1025.56402588 1260.54785156 C1023.4365941 1259.40800132 1022.04959528 1258.30285057 1020.35058594 1256.609375 C1019.51016754 1255.77841309 1019.51016754 1255.77841309 1018.652771 1254.93066406 C1018.06095032 1254.33479492 1017.46912964 1253.73892578 1016.859375 1253.125 C1016.24354553 1252.51108398 1015.62771606 1251.89716797 1014.9932251 1251.26464844 C1013.69647354 1249.96925517 1012.40223343 1248.67134356 1011.11035156 1247.37109375 C1009.12524798 1245.37524932 1007.12966409 1243.39033274 1005.1328125 1241.40625 C1003.87435789 1240.14647445 1002.61652346 1238.88607899 1001.359375 1237.625 C1000.7594574 1237.02913086 1000.15953979 1236.43326172 999.54144287 1235.81933594 C995.375 1231.60493247 995.375 1231.60493247 995.375 1229.375 C994.7975 1229.148125 994.22 1228.92125 993.625 1228.6875 C990.77969122 1227.02773655 989.43846666 1224.95433333 987.375 1222.375 C986.28896925 1221.3961619 985.18190265 1220.44049164 984.0625 1219.5 C979.63822934 1215.71619519 975.50652561 1211.65961643 971.375 1207.5625 C970.34959106 1206.55630615 970.34959106 1206.55630615 969.3034668 1205.52978516 C968.66707275 1204.89476074 968.03067871 1204.25973633 967.375 1203.60546875 C966.50875 1202.74538208 966.50875 1202.74538208 965.625 1201.86791992 C964.375 1200.375 964.375 1200.375 964.375 1198.375 C963.7975 1198.1275 963.22 1197.88 962.625 1197.625 C960.04560021 1196.19200012 958.31378408 1194.59075324 956.375 1192.375 C956.375 1191.715 956.375 1191.055 956.375 1190.375 C955.818125 1190.148125 955.26125 1189.92125 954.6875 1189.6875 C951.71340412 1187.99949964 949.65491135 1185.90823483 947.375 1183.375 C947.375 1182.715 947.375 1182.055 947.375 1181.375 C946.818125 1181.16875 946.26125 1180.9625 945.6875 1180.75 C943.08519143 1179.20268139 941.52498237 1177.29997787 939.65234375 1174.94921875 C936.17066785 1170.65834601 932.00875722 1167.1643262 927.73046875 1163.70703125 C927.28316406 1163.26746094 926.83585937 1162.82789062 926.375 1162.375 C926.375 1161.715 926.375 1161.055 926.375 1160.375 C925.715 1160.375 925.055 1160.375 924.375 1160.375 C924.375 1159.715 924.375 1159.055 924.375 1158.375 C923.715 1158.375 923.055 1158.375 922.375 1158.375 C922.375 1157.715 922.375 1157.055 922.375 1156.375 C921.055 1155.715 919.735 1155.055 918.375 1154.375 C918.375 1153.715 918.375 1153.055 918.375 1152.375 C917.715 1152.375 917.055 1152.375 916.375 1152.375 C916.375 1151.715 916.375 1151.055 916.375 1150.375 C915.7975 1150.148125 915.22 1149.92125 914.625 1149.6875 C911.77969122 1148.02773655 910.43846666 1145.95433333 908.375 1143.375 C906.28292961 1141.5082295 904.14925004 1139.7074576 901.984375 1137.92578125 C901.45328125 1137.41402344 900.9221875 1136.90226562 900.375 1136.375 C900.375 1135.715 900.375 1135.055 900.375 1134.375 C899.818125 1134.148125 899.26125 1133.92125 898.6875 1133.6875 C895.71340412 1131.99949964 893.65491135 1129.90823483 891.375 1127.375 C891.375 1126.715 891.375 1126.055 891.375 1125.375 C890.7975 1125.1275 890.22 1124.88 889.625 1124.625 C887.04560021 1123.19200012 885.31378408 1121.59075324 883.375 1119.375 C883.375 1118.715 883.375 1118.055 883.375 1117.375 C882.818125 1117.16875 882.26125 1116.9625 881.6875 1116.75 C879.08519143 1115.20268139 877.52498237 1113.29997787 875.65234375 1110.94921875 C872.17066785 1106.65834601 868.00875722 1103.1643262 863.73046875 1099.70703125 C863.28316406 1099.26746094 862.83585937 1098.82789062 862.375 1098.375 C862.375 1097.715 862.375 1097.055 862.375 1096.375 C861.715 1096.375 861.055 1096.375 860.375 1096.375 C860.375 1095.715 860.375 1095.055 860.375 1094.375 C859.715 1094.375 859.055 1094.375 858.375 1094.375 C858.375 1093.715 858.375 1093.055 858.375 1092.375 C857.75625 1092.1275 857.1375 1091.88 856.5 1091.625 C853.97141373 1090.13759631 853.65660996 1088.93821991 852.375 1086.375 C851.04567426 1085.70037767 849.71184149 1085.03460372 848.375 1084.375 C846.82667542 1083.07391357 846.82667542 1083.07391357 845.33813477 1081.58105469 C844.77397354 1081.01997009 844.20981232 1080.4588855 843.6285553 1079.88079834 C843.03054611 1079.27560364 842.43253693 1078.67040894 841.81640625 1078.046875 C840.87715553 1077.10693695 840.87715553 1077.10693695 839.91893005 1076.14801025 C838.59616684 1074.82222969 837.2758312 1073.49402325 835.95776367 1072.16357422 C833.95342722 1070.14107158 831.94129542 1068.12659587 829.92773438 1066.11328125 C828.64015401 1064.82078152 827.35302981 1063.52782719 826.06640625 1062.234375 C825.4704213 1061.63727722 824.87443634 1061.04017944 824.26039124 1060.42498779 C820.75833777 1056.88355118 817.53529498 1053.2235587 814.375 1049.375 C813.05411724 1048.13036932 811.70288009 1046.9164819 810.3125 1045.75 C804.52583553 1040.79468997 804.52583553 1040.79468997 802.375 1038.375 C802.375 1037.715 802.375 1037.055 802.375 1036.375 C801.055 1035.715 799.735 1035.055 798.375 1034.375 C798.375 1033.715 798.375 1033.055 798.375 1032.375 C797.81464953 1032.13957381 797.25429906 1031.90414762 796.67696828 1031.6615873 C793.81737432 1030.06333883 791.86077808 1028.10896143 789.54350752 1025.78960317 C789.06893999 1025.31734335 788.59437246 1024.84508353 788.10542409 1024.35851281 C786.50714592 1022.76555025 784.91613426 1021.16552103 783.32495785 1019.56546688 C782.16777112 1018.40915227 781.01014488 1017.25327736 779.85211793 1016.09780422 C776.65201647 1012.90219505 773.45822471 1009.70034264 770.26536776 1006.49749743 C766.79781176 1003.02129515 763.32446081 999.55089154 759.85181862 996.07977158 C753.7598273 989.98884848 747.6715641 983.89421853 741.58568954 977.79718399 C732.53559172 968.73053719 723.47976952 959.66962442 714.4226984 950.60994419 C699.18646859 935.36903898 683.95476359 920.12361937 668.72546196 904.87579155 C653.63450588 889.76656562 638.54107461 874.65981822 623.44441414 859.55629158 C622.9756289 859.08729203 622.50684365 858.61829247 622.02385279 858.13508081 C616.78579349 852.89463939 611.54765507 847.65427706 606.30948425 842.41394711 C596.62023109 832.7206945 586.93131049 823.02710948 577.24247074 813.33344364 C576.51526091 812.60587297 576.51526091 812.60587297 575.77335998 811.8636039 C552.69191304 788.77067097 529.61349687 765.67471005 506.53577879 742.57805079 C505.00425498 741.04527029 503.47272964 739.5124913 501.94120397 737.97971265 C486.05151215 722.07701434 470.16200194 706.17413457 454.27252431 690.27122225 C438.91104744 674.89675739 423.54952205 659.52234101 408.18784158 644.14807958 C406.65835429 642.61733899 405.12886852 641.08659688 403.5993829 639.55585461 C380.55616442 616.49372452 357.51203993 593.4325007 334.46508121 570.37410831 C333.98053556 569.88932135 333.49598991 569.40453439 332.99676106 568.90505692 C323.31509278 559.21857552 313.63329227 549.5322263 303.95121157 539.84615713 C298.71484882 534.60763529 293.47854227 529.36905727 288.24229622 524.13041878 C287.77383979 523.66174942 287.30538336 523.19308005 286.82273129 522.71020859 C271.27092875 507.15126432 255.72313181 491.58832501 240.17722853 476.02348687 C225.02907797 460.85696985 209.87750261 445.69388176 194.72234391 430.53436755 C185.71650338 421.52569657 176.71351491 412.51419655 167.71453795 403.49866927 C161.70315533 397.47677383 155.68815158 391.45851167 149.67019811 385.44318281 C146.24137438 382.01564106 142.81415702 378.58653456 139.39137118 375.15296238 C136.27391728 372.02574211 133.15183396 368.90322089 130.02608735 365.78429005 C128.9066161 364.6656572 127.78880264 363.54536204 126.67291794 362.42315144 C97.95638873 333.55325912 56.8877031 307.6228749 14.7436676 307.21040344 C14.05610886 307.20929062 13.36855011 307.2081778 12.66015625 307.20703125 C11.92735947 307.20370285 11.19456268 307.20037445 10.43955994 307.19694519 C8.89062115 307.19190159 7.34167159 307.18953607 5.79272461 307.18969727 C3.47555469 307.1875355 1.1588812 307.16942161 -1.15820312 307.15039062 C-42.99135715 306.98819351 -83.87342794 322.97349082 -114.109375 352 C-116.5193784 354.27528271 -119.03879127 356.30603301 -121.625 358.375 C-141.87280541 378.37527722 -156.76095327 406.89449405 -163.625 434.375 C-163.82109863 435.14714844 -164.01719727 435.91929687 -164.21923828 436.71484375 C-170.31891765 461.97140658 -170.2348146 491.24757452 -163.625 516.375 C-163.41601074 517.20660645 -163.20702148 518.03821289 -162.99169922 518.89501953 C-154.10524833 553.6087584 -134.06994892 585.41068747 -105.625 607.375 C-104.62855469 608.18710938 -103.63210938 608.99921875 -102.60546875 609.8359375 C-94.48508246 616.39909349 -85.89345696 621.59128028 -76.625 626.375 C-75.61977295 626.89707031 -75.61977295 626.89707031 -74.59423828 627.4296875 C-56.23413363 636.8374175 -37.05271543 642.58672366 -16.625 645.375 C-14.85357887 645.63003799 -14.85357887 645.63003799 -13.04637146 645.89022827 C-5.4562615 646.71944279 2.19982084 646.51096067 9.82495117 646.50097656 C11.5899205 646.50237315 13.35488949 646.50427365 15.11985779 646.50663757 C18.90605628 646.5111163 22.69224398 646.51299025 26.47844505 646.51309967 C32.46672159 646.51424426 38.45493709 646.52711157 44.44319153 646.54266357 C45.96176916 646.54652285 45.96176916 646.54652285 47.51102513 646.5504601 C49.58018689 646.55572587 51.64934861 646.56101135 53.71851027 646.56631613 C67.64983395 646.60139006 81.5810796 646.62797203 95.51245117 646.62548828 C104.92525001 646.62390039 114.33783869 646.63991204 123.75057012 646.67619491 C128.72730176 646.6946548 133.70368239 646.70399658 138.6804409 646.69171906 C143.35677668 646.68029224 148.03248258 646.69196265 152.70873451 646.72135353 C154.42358384 646.72799815 156.13849076 646.72612035 157.85331726 646.71505547 C160.1964779 646.70119088 162.53750927 646.71806634 164.88053894 646.74249268 C166.19070071 646.74395924 167.50086248 646.7454258 168.85072613 646.7469368 C174.595207 647.77066457 177.8312556 651.456232 181.4609375 655.89453125 C186.62925293 661.94791004 192.35424544 667.45996106 198 673.0625 C199.13044381 674.18791457 200.26065372 675.31356412 201.390625 676.43945312 C203.46682238 678.50755747 205.5443659 680.57428792 207.62353516 682.6394043 C211.77386585 686.76579786 215.90821783 690.90816108 220.04516888 695.04796219 C220.95957357 695.96298358 221.87397827 696.87800498 222.81609219 697.82075429 C223.304565 698.30956261 223.79303781 698.79837092 224.29631283 699.30199161 C227.02245639 702.02999802 229.74864124 704.75796317 232.474823 707.4859314 C233.35326828 708.36495302 233.35326828 708.36495302 234.24945993 709.26173265 C261.18357746 736.21346978 288.12023316 763.16266866 315.05884666 790.10991199 C318.94802298 794.00033892 322.83717743 797.8907877 326.72631836 801.78125 C327.50052607 802.55572002 328.27473378 803.33019005 329.07240234 804.12812886 C341.63658544 816.69667284 354.19900228 829.26698083 366.76077803 841.83793083 C379.6525416 854.73903123 392.54619007 867.63824552 405.44160634 880.53569484 C413.3996061 888.49506908 421.35611663 896.45592612 429.31074915 904.41866562 C434.75536635 909.86855064 440.20180583 915.31661004 445.64970895 920.76321033 C448.79650485 923.90936304 451.94246589 927.05633934 455.08627319 930.20547867 C457.96021807 933.08426258 460.83642758 935.96076288 463.7145106 938.83540949 C464.75900824 939.87948196 465.80264822 940.92441324 466.84537306 941.97025624 C468.25540624 943.38426287 469.66878184 944.79493418 471.08235455 946.20540237 C471.86870303 946.99213058 472.65505151 947.77885878 473.46522874 948.58942723 C475.2574829 950.43465086 475.2574829 950.43465086 477.375 951.375 C477.375 952.035 477.375 952.695 477.375 953.375 C430.97736364 953.42644543 384.57972492 953.47419522 338.18206787 953.50202942 C337.14913665 953.50265068 337.14913665 953.50265068 336.09533812 953.50328448 C321.12345073 953.51226687 306.15156303 953.52057689 291.17967488 953.52819599 C283.8356035 953.53193743 276.4915322 953.53582717 269.14746094 953.53979492 C268.41670566 953.5401872 267.68595038 953.54057948 266.933051 953.54098364 C243.3217812 953.55372774 219.71053318 953.5762315 196.09927653 953.60389166 C171.80011188 953.63230545 147.50095924 953.65068305 123.20177825 953.65674497 C119.75589484 953.65760921 116.31001147 953.65858612 112.86412811 953.65963173 C111.8470039 953.65993513 111.8470039 953.65993513 110.80933172 953.66024467 C99.97085026 953.66376572 89.13240637 953.67761389 78.29394012 953.6954961 C67.35112268 953.71332382 56.40834354 953.71962322 45.46551231 953.71550413 C39.55533199 953.71360165 33.64526029 953.71630691 27.73509979 953.73261642 C-68.90867572 953.98585213 -160.58034035 934.06456029 -293.625 849.375 C-294.28064941 848.84938477 -294.93629883 848.32376953 -295.61181641 847.78222656 C-304.74221187 840.4317865 -313.56906133 832.85152196 -322.09423828 824.80859375 C-324.1554841 822.87818937 -326.24653748 820.98164524 -328.33789062 819.08398438 C-335.84371271 812.26484487 -343.09595681 805.29141682 -349.6953125 797.58203125 C-351.57748668 795.42934215 -353.51754678 793.33926041 -355.47241211 791.25268555 C-361.40940074 784.89199538 -366.81640942 778.22784448 -372.11230469 771.32910156 C-373.72643665 769.24396401 -375.36475186 767.17959507 -377.0078125 765.1171875 C-385.12926226 754.88447541 -392.59087883 744.38106253 -399.625 733.375 C-400.39577881 732.17931396 -400.39577881 732.17931396 -401.18212891 730.95947266 C-442.0612713 667.32079543 -466.76620689 594.63524027 -473.625 519.375 C-473.71273682 518.47846207 -473.80047363 517.58192413 -473.89086914 516.65821838 C-474.60737785 508.91105286 -474.78588676 501.22656085 -474.79296875 493.44921875 C-474.79629715 492.14459183 -474.79962555 490.8399649 -474.80305481 489.49580383 C-474.80899726 486.74515965 -474.81090012 483.99454662 -474.81030273 481.24389648 C-474.81022202 478.47592558 -474.8170847 475.7081221 -474.83081055 472.94018555 C-474.91351476 455.99080796 -474.50963002 439.23749081 -472.625 422.375 C-472.48956787 421.08907959 -472.35413574 419.80315918 -472.21459961 418.47827148 C-462.200857 328.76779211 -424.14248571 243.76412837 -355.0390625 160 C-353.75500876 158.60374739 -352.47675019 157.20110571 -351.24609375 155.75756836 C-345.8616452 149.44330532 -340.03002367 143.59391824 -334.16552734 137.73022461 C-332.38738228 135.94989748 -330.61740439 134.16171623 -328.84765625 132.37304688 C-322.07806996 125.57046499 -315.14596027 119.34602217 -307.625 113.375 C-306.46069288 112.38044947 -305.30322782 111.37776816 -304.15625 110.36328125 C-239.22293524 52.94612644 -153.6418847 17.39701363 -68.625 4.375 C-67.94018555 4.26849121 -67.25537109 4.16198242 -66.54980469 4.05224609 C-62.25179805 3.39551421 -57.94393906 2.86912014 -53.625 2.375 C-52.91462585 2.29195114 -52.20425171 2.20890228 -51.47235107 2.12333679 C-34.33556992 0.17858829 -17.22431898 -0.0223214 0 0 Z " fill="#CEA328" transform="translate(1456.625,1772.625)"/>
<path d="M0 0 C4.94400773 4.14656648 9.59903325 8.45754336 14.14989287 13.02914637 C14.83902787 13.71737598 15.52816287 14.40560559 16.23818075 15.11469064 C18.54733208 17.42203028 20.85289082 19.73292614 23.15848637 22.04381847 C24.83692428 23.72242701 26.51558299 25.4008148 28.19444248 27.07900169 C31.85589629 30.73999922 35.5157865 34.40255243 39.17431743 38.06647059 C44.6513824 43.5515763 50.13136707 49.03375824 55.61193192 54.5153667 C64.95283397 63.85820865 74.2913868 73.20339549 83.62867737 82.54984665 C93.09187804 92.02230451 102.55618798 101.49365203 112.02186394 110.9636364 C112.61961996 111.56166517 113.21737599 112.15969394 113.83324583 112.7758448 C116.88122643 115.8252028 119.92922825 118.87453958 122.97724009 121.92386634 C129.22646947 128.17580398 135.47555159 134.42788879 141.72458446 140.68002284 C142.66864355 141.6245499 142.66864355 141.6245499 143.63177455 142.58815832 C157.45958312 156.42289392 171.28595231 170.25906776 185.11225586 184.09530744 C217.29283912 216.29899846 249.47781987 248.49829147 281.66444278 280.69594595 C294.29691645 293.33275473 306.9292492 305.9697044 319.56159409 318.60664192 C321.68971621 320.73553705 323.81783965 322.86443085 325.94596326 324.99332449 C358.66392952 357.72314629 391.38084464 390.45401872 424.09716093 423.18548981 C426.31525221 425.40460793 428.53334538 427.62372417 430.75143876 429.84284018 C464.91206337 464.01923916 499.07161063 498.19671436 533.2288208 532.37652588 C533.96343006 533.11162071 534.69803932 533.84671553 535.45490946 534.60408596 C543.60426255 542.75882848 551.75359355 550.91359308 559.90291565 559.06836656 C560.6350176 559.80095823 561.36711955 560.5335499 562.1214064 561.28834131 C565.81555723 564.98496383 569.50970671 568.6815877 573.20385458 572.37821317 C606.58508563 605.7818089 639.96737056 639.1843498 673.35439205 672.58215809 C674.05621957 673.28421333 674.75804709 673.98626858 675.48114211 674.70959822 C690.19631301 689.42952131 704.91179504 704.14913331 719.62768479 718.86833775 C726.51903829 725.76124618 733.41031915 732.65422723 740.30155754 739.54725075 C741.31927492 740.56522811 741.31927492 740.56522811 742.35755224 741.60377067 C764.21013102 763.46200592 786.05770763 785.32523282 807.9025833 807.19116627 C829.90618491 829.21595026 851.91434374 851.23616891 873.92892523 873.24997842 C876.97210733 876.29305741 880.01523469 879.33619114 883.05832863 882.37935829 C883.65485049 882.97589083 884.25137234 883.57242338 884.86597062 884.18703266 C894.30486815 893.62637969 903.73870186 903.0707708 913.17042073 912.51729012 C922.44863131 921.80985427 931.73218771 931.09704916 941.02142228 940.37859355 C946.46442498 945.8174134 951.90329984 951.26028279 957.33608193 956.70931236 C961.3750929 960.75947929 965.42194687 964.80173436 969.47183923 968.84101783 C971.09497902 970.46231298 972.71562349 972.08611129 974.3334022 973.71275594 C1002.98386799 1002.51055502 1034.90598674 1021.98204581 1075 1030 C1075.89219238 1030.17958252 1076.78438477 1030.35916504 1077.70361328 1030.54418945 C1081.90030868 1031.12449091 1086.0217306 1031.20122802 1090.25390625 1031.23828125 C1091.15004135 1031.246353 1092.04617645 1031.25442474 1092.96946716 1031.26274109 C1094.8698435 1031.27654184 1096.7702442 1031.28728183 1098.6706543 1031.29516602 C1100.57177242 1031.30656149 1102.47286184 1031.32680964 1104.3737793 1031.35668945 C1127.98708129 1031.72677798 1150.72943937 1027.52030431 1172 1017 C1173.23390128 1016.41826498 1174.46831228 1015.83761035 1175.703125 1015.2578125 C1200.69767039 1003.34706544 1222.74846902 985.45056856 1239 963 C1239.78117187 961.96359375 1239.78117187 961.96359375 1240.578125 960.90625 C1266.45171842 925.60209449 1276.91846268 880.27512473 1270.875 837.0625 C1267.03678063 812.53096378 1257.99334457 784.6493019 1241.88671875 765.28515625 C1240.05675106 763.06873575 1238.35966964 760.77824061 1236.66064453 758.4609375 C1214.54258916 728.65233274 1181.0644227 708.35949736 1145.875 697.8125 C1145.10768555 697.57442627 1144.34037109 697.33635254 1143.54980469 697.09106445 C1140.71816342 696.28027837 1137.87632463 695.6370586 1135 695 C1133.74822464 694.71751404 1132.49644928 694.43502808 1131.20674133 694.14398193 C1115.02819777 690.98774848 1099.0000244 692.41440409 1082.67466778 693.34882534 C932.71489659 701.83242598 932.71489659 701.83242598 899.38392639 672.07395935 C886.18995116 659.48765393 875.34512178 644.19914064 866.87545776 628.10015869 C864.9120033 624.85454019 862.77453975 622.56905045 860 620 C849 609 849 609 846.30859375 606.2734375 C844.06283849 603.96962414 844.06283849 603.96962414 841.5625 602.125 C839.40991977 600.33993347 837.83072277 598.69449777 836.0625 596.5625 C834.12074122 594.22345042 832.3684215 592.47368458 830 590.5 C827.02709073 588.02257561 824.71879624 585.44797385 822.296875 582.453125 C821.04219297 580.86712389 821.04219297 580.86712389 819 580 C819 579.34 819 578.68 819 578 C818.443125 577.773125 817.88625 577.54625 817.3125 577.3125 C814.33840412 575.62449964 812.27991135 573.53323483 810 571 C810 570.34 810 569.68 810 569 C809.4225 568.773125 808.845 568.54625 808.25 568.3125 C805.42591529 566.66511725 804.0023037 564.56545162 802 562 C801.2575 561.443125 800.515 560.88625 799.75 560.3125 C798.88375 559.6628125 798.88375 559.6628125 798 559 C798 558.34 798 557.68 798 557 C797.46890625 556.79375 796.9378125 556.5875 796.390625 556.375 C792.99226564 554.42038808 790.48944072 551.77876283 787.75 549 C787.19570312 548.4534375 786.64140625 547.906875 786.0703125 547.34375 C782 543.2533867 782 543.2533867 782 541 C781.46893772 540.79369965 780.93787544 540.58739929 780.39072037 540.37484741 C777.01342527 538.43264393 774.47198777 535.74691293 771.74847412 533.00244141 C771.12435646 532.38144373 770.5002388 531.76044605 769.85720849 531.12063026 C767.76427431 529.03568221 765.67857182 526.94364747 763.59277344 524.8515625 C762.09508035 523.35657894 760.596962 521.86202131 759.09844971 520.36785889 C755.02800128 516.30653967 750.96391843 512.23890553 746.9012022 508.16985321 C742.65475484 503.91835051 738.40343936 499.67172034 734.15289307 495.42431641 C727.01726975 488.2923333 719.88587787 481.15613947 712.75683594 474.01757812 C704.50353798 465.75338721 696.24304826 457.4964374 687.97880149 449.24319649 C680.89229788 442.16575425 673.80968106 435.08444011 666.73032784 427.9998455 C662.49812883 423.76452153 658.2645737 419.5305769 654.02751923 415.30010986 C650.04710667 411.32545372 646.07157854 407.34597712 642.09984589 403.36264801 C640.63738959 401.89753632 639.17320855 400.43414403 637.70722961 398.97255707 C635.71470882 396.98545838 633.7283832 394.99237272 631.74359131 392.99755859 C631.15489565 392.41332438 630.56619998 391.82909016 629.95966506 391.22715187 C626 387.22830039 626 387.22830039 626 385 C671.82214474 384.93137263 717.64429434 384.86771089 763.46647644 384.83062744 C764.14708217 384.83007521 764.8276879 384.82952298 765.52891804 384.82895402 C780.32826355 384.81697616 795.1276096 384.80589633 809.92695646 384.79573868 C817.18690013 384.79075031 824.44684365 384.78556396 831.70678711 384.78027344 C832.79033574 384.77948888 832.79033574 384.77948888 833.89577424 384.77868848 C857.21561591 384.76171104 880.53541824 384.73171733 903.85523618 384.69481112 C927.8642003 384.6568842 951.87314275 384.63241306 975.88213632 384.62434004 C979.29063801 384.6231878 982.69913962 384.62188526 986.10764122 384.62049103 C987.11368386 384.62008649 987.11368386 384.62008649 988.1400506 384.61967378 C999.49576222 384.61470049 1010.85138655 384.59351562 1022.20707162 384.56833413 C1032.36610297 384.54697209 1042.52507699 384.54084821 1052.6841291 384.54599449 C1058.52027628 384.54852306 1064.35622778 384.54502165 1070.19233894 384.5231781 C1118.2383505 384.35249387 1165.2406209 388.21905186 1212.08251953 399.31103516 C1214.81097106 399.9553607 1217.54284429 400.58114337 1220.27734375 401.19921875 C1226.00922982 402.50716984 1231.5413594 403.78912202 1237 406 C1239.30967116 406.63537422 1241.62267451 407.25866876 1243.9375 407.875 C1256.53929006 411.40626294 1268.58741663 416.68506524 1280.67822266 421.64501953 C1283.52341418 422.8055967 1286.37747006 423.9373358 1289.23828125 425.05859375 C1333.54487137 442.75306402 1373.577941 470.36472015 1410.21435547 500.53759766 C1411.40298128 501.51105522 1412.59998536 502.47437306 1413.80517578 503.42724609 C1415.23919074 504.57487798 1416.62500966 505.78227285 1418 507 C1418 507.66 1418 508.32 1418 509 C1418.8353125 509.3403125 1418.8353125 509.3403125 1419.6875 509.6875 C1422.65239972 511.37028092 1424.616515 513.56108512 1427 516 C1428.15722598 517.01091005 1429.32438005 518.01054113 1430.5 519 C1434.138147 522.08451593 1437.68203349 525.18779605 1440.5 529.0625 C1441.95708815 531.11200098 1441.95708815 531.11200098 1444.171875 532.6796875 C1447.67377709 535.55279502 1450.67969806 538.74021145 1453.75 542.0625 C1454.68187134 543.0671228 1454.68187134 543.0671228 1455.63256836 544.09204102 C1459.81025983 548.62904544 1463.82502447 553.25922049 1467.671875 558.08203125 C1469.43187861 560.28794181 1471.2111827 562.46768023 1473.015625 564.63671875 C1480.85379738 574.09285171 1488.07847137 583.85629735 1495 594 C1495.44472656 594.64855957 1495.88945312 595.29711914 1496.34765625 595.96533203 C1509.39795608 615.04896078 1520.90927753 635.14795388 1530.99804688 655.94726562 C1532.01978193 658.04052789 1533.06386055 660.12165291 1534.109375 662.203125 C1549.0386915 692.33556787 1559.65283088 725.24071501 1567 758 C1567.33209473 759.47702393 1567.33209473 759.47702393 1567.67089844 760.98388672 C1578.37365304 809.46060707 1581.47711116 860.59437363 1576 910 C1575.87109375 911.16644043 1575.7421875 912.33288086 1575.609375 913.53466797 C1569.81401706 964.0897754 1556.42819496 1012.45198564 1536 1059 C1535.63310059 1059.83901855 1535.26620117 1060.67803711 1534.88818359 1061.54248047 C1520.28868079 1094.57821548 1500.53806418 1125.83875683 1478 1154 C1476.9987435 1155.31154172 1475.99874574 1156.62404532 1475 1157.9375 C1471.69496799 1162.18170596 1468.28005204 1166.32583858 1464.8125 1170.4375 C1464.30138672 1171.05294678 1463.79027344 1171.66839355 1463.26367188 1172.30249023 C1460.6912636 1175.32591061 1458.70919128 1177.40788773 1455 1179 C1454.19471111 1181.05000871 1454.19471111 1181.05000871 1454 1183 C1453.34 1183 1452.68 1183 1452 1183 C1451.773125 1183.556875 1451.54625 1184.11375 1451.3125 1184.6875 C1449.62449964 1187.66159588 1447.53323483 1189.72008865 1445 1192 C1444.34 1192 1443.68 1192 1443 1192 C1442.9175 1192.61875 1442.835 1193.2375 1442.75 1193.875 C1441.76174558 1196.67505419 1440.59640015 1196.74113932 1438 1198 C1437.62681641 1198.84304688 1437.62681641 1198.84304688 1437.24609375 1199.703125 C1435.45144959 1203.01112114 1432.76518351 1205.26524784 1430 1207.75 C1429.4534375 1208.25660156 1428.906875 1208.76320313 1428.34375 1209.28515625 C1424.25842318 1213 1424.25842318 1213 1422 1213 C1421.67 1213.99 1421.34 1214.98 1421 1216 C1417.0906105 1220.10120534 1413.28779384 1222.97819647 1408 1225 C1407.69819824 1225.61657471 1407.39639648 1226.23314941 1407.08544922 1226.8684082 C1405.85254833 1229.28956377 1404.67272854 1230.30334636 1402.5078125 1231.91796875 C1401.45920044 1232.70941284 1401.45920044 1232.70941284 1400.3894043 1233.5168457 C1399.64215088 1234.06816162 1398.89489746 1234.61947754 1398.125 1235.1875 C1397.35776611 1235.76266357 1396.59053223 1236.33782715 1395.80004883 1236.93041992 C1394.25302328 1238.08927388 1392.70364902 1239.24499952 1391.15185547 1240.39746094 C1389.30082908 1241.77596527 1387.4612866 1243.16719411 1385.62890625 1244.5703125 C1378.93273412 1249.67469869 1372.05370311 1254.40553849 1365 1259 C1363.67553336 1259.87592737 1362.35132915 1260.75225164 1361.02734375 1261.62890625 C1351.57384458 1267.85726114 1341.97004559 1273.63923245 1332 1279 C1331.15727539 1279.45487793 1330.31455078 1279.90975586 1329.44628906 1280.37841797 C1302.03533675 1295.10749881 1273.56987521 1308.11562524 1243.65234375 1316.90234375 C1241.63683264 1317.5080749 1239.62606484 1318.13568005 1237.64770508 1318.85351562 C1227.59889401 1322.44841483 1217.23918502 1324.46075058 1206.8125 1326.625 C1204.91978429 1327.0227834 1203.02720503 1327.42121664 1201.13476562 1327.8203125 C1198.46212254 1328.38377272 1195.7893381 1328.94637398 1193.11543274 1329.5038147 C1192.31397324 1329.67093964 1191.51251373 1329.83806458 1190.68676758 1330.01025391 C1189.90435699 1330.17331024 1189.12194641 1330.33636658 1188.31582642 1330.50436401 C1186.0318834 1330.99317628 1183.75840835 1331.51832346 1181.4831543 1332.04589844 C1176.891266 1333.06940272 1172.29359018 1333.72656213 1167.625 1334.2890625 C1166.27908279 1334.4518998 1166.27908279 1334.4518998 1164.90597534 1334.61802673 C1109.45606944 1341.14065985 1054.46628973 1339.36720303 999.875 1327.75 C999.16766724 1327.59971344 998.46033447 1327.44942688 997.73156738 1327.29458618 C984.61841387 1324.48910143 971.76241864 1321.13757855 959 1317 C957.87174805 1316.63535645 956.74349609 1316.27071289 955.58105469 1315.89501953 C920.59303497 1304.46559976 886.24197438 1289.61688669 855 1270 C854.15324707 1269.47728516 853.30649414 1268.95457031 852.43408203 1268.41601562 C840.81194585 1261.23938233 829.56131537 1253.78105425 818.78320312 1245.38623047 C817.03613785 1244.02809292 815.27821257 1242.68556601 813.515625 1241.34765625 C810.32649258 1238.91984185 807.1442839 1236.48575549 804 1234 C803.25017581 1233.4146716 802.50035163 1232.82934321 801.7278055 1232.22627759 C793.9178288 1226.00097631 786.90214709 1219.17847098 779.86611938 1212.10662842 C778.57367747 1210.8150603 777.28079546 1209.52393245 775.98751581 1208.23320317 C772.46023798 1204.71036906 768.93917913 1201.18137744 765.4191606 1197.65129185 C761.6123638 1193.83581923 757.79974846 1190.02616832 753.987854 1186.21578979 C747.39151865 1179.62050081 740.79884193 1173.02157304 734.20866776 1166.42012787 C724.67506025 1156.8702267 715.1358974 1147.32589044 705.59539442 1137.78287855 C690.10769334 1122.29080482 674.62445911 1106.79427481 659.14404297 1091.29492188 C644.12294764 1076.25547087 629.09975565 1061.21811938 614.07373047 1046.18359375 C613.14750482 1045.25684266 612.22127918 1044.33009156 611.26698609 1043.3752571 C606.6194231 1038.72508361 601.97181859 1034.07495161 597.32419324 1029.42484045 C565.31160367 997.39504272 533.30346264 965.36080448 501.29983521 933.322052 C500.61797331 932.63944178 499.93611142 931.95683156 499.23358705 931.25353618 C496.07573751 928.09220953 492.91791129 924.9308596 489.76013529 921.76945949 C489.19939057 921.20808056 488.63864584 920.64670163 488.06090885 920.06831121 C487.03713679 919.04338007 486.01337545 918.01843821 484.98962814 916.99348235 C483.65985755 915.66221621 482.32993186 914.33110502 481 913 C480.11272008 912.1010033 479.22544017 911.20200659 478.31127298 910.27576756 C476.06328229 907.970009 476.06328229 907.970009 473.5625 906.125 C470.84133864 903.86842716 468.73131032 901.43782796 466.47265625 898.734375 C463.75883728 895.53825929 460.88523265 892.68094819 457.5625 890.125 C454.84133864 887.86842716 452.73131032 885.43782796 450.47265625 882.734375 C447.75883728 879.53825929 444.88523265 876.68094819 441.5625 874.125 C438.84133864 871.86842716 436.73131032 869.43782796 434.47265625 866.734375 C431.73884086 863.51470913 428.83735503 860.64895015 425.5 858.0625 C423.13562662 856.11189196 421.36762271 854.04419303 419.46875 851.65234375 C417.09484613 848.9817019 414.33158196 846.77859962 411.57421875 844.515625 C411.05472656 844.01546875 410.53523438 843.5153125 410 843 C410 842.34 410 841.68 410 841 C408.68 840.34 407.36 839.68 406 839 C406 838.34 406 837.68 406 837 C404.68 836.34 403.36 835.68 402 835 C402 834.34 402 833.68 402 833 C400.68 832.34 399.36 831.68 398 831 C398 830.34 398 829.68 398 829 C397.01 828.67 396.02 828.34 395 828 C392.3125 825.5625 392.3125 825.5625 390 823 C390 822.34 390 821.68 390 821 C389.42765625 820.7525 388.8553125 820.505 388.265625 820.25 C385.64989389 818.80683801 383.85226544 817.11783778 381.75 815 C381.04359375 814.29875 380.3371875 813.5975 379.609375 812.875 C378 811 378 811 378 809 C377.47061994 808.77059819 376.94123988 808.54119639 376.395818 808.30484301 C373.21871344 806.57448508 370.48357353 804.37292487 367.66691208 802.12251186 C366.71281758 801.36640933 366.71281758 801.36640933 365.73944845 800.595032 C363.59597397 798.89300228 361.45776243 797.18453334 359.32049561 795.47471619 C358.56626729 794.87239381 357.81203897 794.27007144 357.03495525 793.64949688 C299.62936339 747.77124948 244.23423747 699.74818644 190.12698281 650.03875601 C187.87987194 647.97439893 185.6311252 645.91184961 183.38078392 643.85101449 C128.55727824 593.64128927 74.39079517 541.35630376 -25.65348816 296.66544151 C-27.08618197 263.30081725 -25.8585955 230.08404915 -23.62091231 196.78519469 C-23.37418427 193.11285849 -23.13410942 189.44012862 -22.894701 185.76730871 C-18.77774224 123.32029809 -11.29076578 61.55180732 0 0 Z " fill="#C59921" transform="translate(1940,1389)"/>
<path d="M0 0 C0 5.82875506 -6.03621551 10.09277193 -9.9375 14.0625 C-20.02997076 24 -20.02997076 24 -23 24 C-23 22 -23 22 -21.49609375 20.484375 C-20.81675781 19.91203125 -20.13742188 19.3396875 -19.4375 18.75 C-18.70789062 18.12867187 -17.97828125 17.50734375 -17.2265625 16.8671875 C-16.49179688 16.25101563 -15.75703125 15.63484375 -15 15 C-7.12233997 9.00894773 -7.12233997 9.00894773 -2 1 C-1.34 0.67 -0.68 0.34 0 0 Z " fill="#8C340E" transform="translate(3385,2580)"/>
</svg>
